<svg xmlns="http://www.w3.org/2000/svg" viewBox="0 0 800 600" width="800" height="600">
  <defs>
    <linearGradient id="bg" x1="0%" y1="0%" x2="100%" y2="100%">
      <stop offset="0%" style="stop-color:#0a0806"/>
      <stop offset="100%" style="stop-color:#150f06"/>
    </linearGradient>
    <filter id="blur"><feGaussianBlur stdDeviation="40"/></filter>
    <filter id="blur2"><feGaussianBlur stdDeviation="20"/></filter>
  </defs>
  <rect width="800" height="600" fill="url(#bg)"/><circle cx="58" cy="581" r="119" fill="#f59e0b" opacity="0.32451806883354517" filter="url(#blur)"/><circle cx="500" cy="179" r="169" fill="#f97316" opacity="0.3488798650795042" filter="url(#blur)"/><circle cx="629" cy="407" r="109" fill="#f97316" opacity="0.1790590139241338" filter="url(#blur)"/><circle cx="377" cy="580" r="162" fill="#f59e0b" opacity="0.2259403106391246" filter="url(#blur)"/><circle cx="3" cy="437" r="30" fill="none" stroke="#e879a0" stroke-width="1" opacity="0.4406280136380556"/><line x1="31" y1="456" x2="-163" y2="351" stroke="#e879a0" stroke-width="1" opacity="0.4060891475588345"/><polygon points="426.0,180.0 479.0,233.0 426.0,286.0 373.0,233.0" fill="none" stroke="#f59e0b" stroke-width="1.5" opacity="0.28118049462327355"/><rect x="569" y="430" width="116" height="28" fill="none" stroke="#eab308" stroke-width="1" opacity="0.11655532436285593" transform="rotate(350,627,444)"/><circle cx="347" cy="277" r="9" fill="#f97316" opacity="0.1347350600147066"/><circle cx="309" cy="341" r="26" fill="#f59e0b" opacity="0.215475869395863"/><line x1="696" y1="316" x2="552" y2="200" stroke="#f97316" stroke-width="1" opacity="0.2868832294681899"/><rect x="229" y="327" width="116" height="49" fill="none" stroke="#e879a0" stroke-width="1" opacity="0.1128535803845559" transform="rotate(9,287,351)"/><rect x="692" y="317" width="52" height="31" fill="none" stroke="#f59e0b" stroke-width="1" opacity="0.3174228639218827" transform="rotate(105,718,332)"/><line x1="485" y1="171" x2="365" y2="-4" stroke="#e879a0" stroke-width="1" opacity="0.25129215464232246"/><rect x="776" y="295" width="99" height="25" fill="none" stroke="#eab308" stroke-width="1" opacity="0.20585607795002772" transform="rotate(35,825,307)"/><polygon points="515.0,212.0 550.5,232.5 550.5,273.5 515.0,294.0 479.5,273.5 479.5,232.5" fill="none" stroke="#f97316" stroke-width="1.5" opacity="0.4931399641358095"/><polygon points="545.0,76.0 577.3,99.5 565.0,137.5 525.0,137.5 512.7,99.5" fill="none" stroke="#eab308" stroke-width="1.5" opacity="0.2757956333382961"/><line x1="68" y1="498" x2="200" y2="480" stroke="#f97316" stroke-width="1" opacity="0.18444800858287858"/><line x1="614" y1="317" x2="659" y2="313" stroke="#e879a0" stroke-width="1" opacity="0.18689227722755333"/><polygon points="700.0,338.0 734.2,362.9 721.2,403.1 678.8,403.1 665.8,362.9" fill="none" stroke="#e879a0" stroke-width="1.5" opacity="0.4748914429109248"/><line x1="267" y1="192" x2="242" y2="217" stroke="#eab308" stroke-width="1" opacity="0.3295040395303267"/><circle cx="735" cy="135" r="47" fill="#e879a0" opacity="0.24949143916805422"/><line x1="0" y1="0" x2="0" y2="600" stroke="#f59e0b" stroke-width="0.5" opacity="0.08"/><line x1="60" y1="0" x2="60" y2="600" stroke="#f59e0b" stroke-width="0.5" opacity="0.08"/><line x1="120" y1="0" x2="120" y2="600" stroke="#f59e0b" stroke-width="0.5" opacity="0.08"/><line x1="180" y1="0" x2="180" y2="600" stroke="#f59e0b" stroke-width="0.5" opacity="0.08"/><line x1="240" y1="0" x2="240" y2="600" stroke="#f59e0b" stroke-width="0.5" opacity="0.08"/><line x1="300" y1="0" x2="300" y2="600" stroke="#f59e0b" stroke-width="0.5" opacity="0.08"/><line x1="360" y1="0" x2="360" y2="600" stroke="#f59e0b" stroke-width="0.5" opacity="0.08"/><line x1="420" y1="0" x2="420" y2="600" stroke="#f59e0b" stroke-width="0.5" opacity="0.08"/><line x1="480" y1="0" x2="480" y2="600" stroke="#f59e0b" stroke-width="0.5" opacity="0.08"/><line x1="540" y1="0" x2="540" y2="600" stroke="#f59e0b" stroke-width="0.5" opacity="0.08"/><line x1="600" y1="0" x2="600" y2="600" stroke="#f59e0b" stroke-width="0.5" opacity="0.08"/><line x1="660" y1="0" x2="660" y2="600" stroke="#f59e0b" stroke-width="0.5" opacity="0.08"/><line x1="720" y1="0" x2="720" y2="600" stroke="#f59e0b" stroke-width="0.5" opacity="0.08"/><line x1="780" y1="0" x2="780" y2="600" stroke="#f59e0b" stroke-width="0.5" opacity="0.08"/><line x1="0" y1="0" x2="800" y2="0" stroke="#f59e0b" stroke-width="0.5" opacity="0.08"/><line x1="0" y1="60" x2="800" y2="60" stroke="#f59e0b" stroke-width="0.5" opacity="0.08"/><line x1="0" y1="120" x2="800" y2="120" stroke="#f59e0b" stroke-width="0.5" opacity="0.08"/><line x1="0" y1="180" x2="800" y2="180" stroke="#f59e0b" stroke-width="0.5" opacity="0.08"/><line x1="0" y1="240" x2="800" y2="240" stroke="#f59e0b" stroke-width="0.5" opacity="0.08"/><line x1="0" y1="300" x2="800" y2="300" stroke="#f59e0b" stroke-width="0.5" opacity="0.08"/><line x1="0" y1="360" x2="800" y2="360" stroke="#f59e0b" stroke-width="0.5" opacity="0.08"/><line x1="0" y1="420" x2="800" y2="420" stroke="#f59e0b" stroke-width="0.5" opacity="0.08"/><line x1="0" y1="480" x2="800" y2="480" stroke="#f59e0b" stroke-width="0.5" opacity="0.08"/><line x1="0" y1="540" x2="800" y2="540" stroke="#f59e0b" stroke-width="0.5" opacity="0.08"/><circle cx="249" cy="68" r="2.3307798920287115" fill="#e879a0" opacity="0.31258855356083703"/><circle cx="643" cy="330" r="2.7786490148028236" fill="#f97316" opacity="0.3848082920508719"/><circle cx="283" cy="333" r="2.7630937241119025" fill="#f97316" opacity="0.5508468084243823"/><circle cx="395" cy="333" r="2.361289140687843" fill="#f59e0b" opacity="0.778184940537709"/><circle cx="75" cy="476" r="1.8211759743701157" fill="#f97316" opacity="0.6676078630392807"/><circle cx="2" cy="512" r="2.998353356063891" fill="#f59e0b" opacity="0.7793676526045425"/><circle cx="95" cy="293" r="1.72357411052574" fill="#f97316" opacity="0.7217038387751156"/><circle cx="681" cy="297" r="1.0357845742210878" fill="#e879a0" opacity="0.7023824357692938"/><circle cx="281" cy="113" r="1.8945568443655776" fill="#eab308" opacity="0.7520974159179253"/><circle cx="779" cy="438" r="2.1587564099885226" fill="#e879a0" opacity="0.7163214946725446"/><circle cx="639" cy="318" r="2.5242211888727635" fill="#f97316" opacity="0.6161284411283283"/><circle cx="52" cy="567" r="1.089033543890011" fill="#e879a0" opacity="0.39974797247187566"/><circle cx="463" cy="471" r="1.6870103519414859" fill="#f97316" opacity="0.6383974365640963"/><circle cx="179" cy="69" r="1.273121049495764" fill="#f97316" opacity="0.34165899748246376"/><circle cx="404" cy="200" r="2.3863420271184115" fill="#f59e0b" opacity="0.7231389188442293"/><circle cx="659" cy="405" r="2.6602840201649047" fill="#e879a0" opacity="0.49154500174989846"/><circle cx="343" cy="114" r="1.8101649993818336" fill="#f59e0b" opacity="0.6746325797615231"/><circle cx="725" cy="289" r="2.929919135672166" fill="#f59e0b" opacity="0.7978880528393566"/><circle cx="341" cy="98" r="2.0124295790485087" fill="#f97316" opacity="0.7161424018973941"/><circle cx="43" cy="239" r="1.8494032232282678" fill="#e879a0" opacity="0.6427031761148684"/>
</svg>