<svg xmlns="http://www.w3.org/2000/svg" viewBox="0 0 800 600" width="800" height="600">
  <defs>
    <linearGradient id="bg" x1="0%" y1="0%" x2="100%" y2="100%">
      <stop offset="0%" style="stop-color:#0a0806"/>
      <stop offset="100%" style="stop-color:#150f06"/>
    </linearGradient>
    <filter id="blur"><feGaussianBlur stdDeviation="40"/></filter>
    <filter id="blur2"><feGaussianBlur stdDeviation="20"/></filter>
  </defs>
  <rect width="800" height="600" fill="url(#bg)"/><circle cx="516" cy="338" r="141" fill="#e879a0" opacity="0.33119194915154904" filter="url(#blur)"/><circle cx="314" cy="318" r="117" fill="#f59e0b" opacity="0.21471154949778282" filter="url(#blur)"/><circle cx="343" cy="278" r="89" fill="#e879a0" opacity="0.15942128450489518" filter="url(#blur)"/><circle cx="118" cy="432" r="94" fill="#eab308" opacity="0.2797153898907432" filter="url(#blur)"/><rect x="173" y="498" width="63" height="21" fill="none" stroke="#f59e0b" stroke-width="1" opacity="0.1349425924617117" transform="rotate(360,204,508)"/><polygon points="436.0,351.0 486.2,380.0 486.2,438.0 436.0,467.0 385.8,438.0 385.8,380.0" fill="none" stroke="#e879a0" stroke-width="1.5" opacity="0.13950615962019888"/><rect x="274" y="199" width="29" height="32" fill="none" stroke="#e879a0" stroke-width="1" opacity="0.18727916747121404" transform="rotate(87,288,215)"/><circle cx="271" cy="122" r="13" fill="none" stroke="#f97316" stroke-width="1" opacity="0.3761524458321589"/><circle cx="32" cy="487" r="30" fill="none" stroke="#e879a0" stroke-width="1" opacity="0.3133657029345743"/><rect x="431" y="274" width="76" height="37" fill="none" stroke="#e879a0" stroke-width="1" opacity="0.2891146397035579" transform="rotate(53,469,292)"/><circle cx="127" cy="520" r="53" fill="#e879a0" opacity="0.20402387023624657"/><rect x="416" y="75" width="41" height="80" fill="none" stroke="#f97316" stroke-width="1" opacity="0.15395832732462283" transform="rotate(14,436,115)"/><line x1="111" y1="240" x2="127" y2="373" stroke="#e879a0" stroke-width="1" opacity="0.2251324441117349"/><line x1="720" y1="395" x2="697" y2="287" stroke="#f97316" stroke-width="1" opacity="0.18679574204006588"/><line x1="135" y1="99" x2="39" y2="262" stroke="#eab308" stroke-width="1" opacity="0.4887815228584498"/><rect x="630" y="1" width="25" height="64" fill="none" stroke="#e879a0" stroke-width="1" opacity="0.14040735683696814" transform="rotate(8,642,33)"/><rect x="378" y="80" width="51" height="109" fill="none" stroke="#eab308" stroke-width="1" opacity="0.3552925880351876" transform="rotate(260,403,134)"/><polygon points="507.0,136.0 587.0,216.0 507.0,296.0 427.0,216.0" fill="none" stroke="#e879a0" stroke-width="1.5" opacity="0.2656560669645992"/><circle cx="190" cy="192" r="57" fill="#f59e0b" opacity="0.13739757917939077"/><rect x="692" y="158" width="51" height="53" fill="none" stroke="#f97316" stroke-width="1" opacity="0.30132548221194333" transform="rotate(274,717,184)"/><polygon points="635.0,249.0 704.4,299.4 677.9,381.1 592.1,381.1 565.6,299.4" fill="none" stroke="#f97316" stroke-width="1.5" opacity="0.2463445196836036"/><circle cx="5" cy="251" r="22" fill="#f97316" opacity="0.21449809805091086"/><line x1="0" y1="0" x2="0" y2="600" stroke="#f59e0b" stroke-width="0.5" opacity="0.08"/><line x1="60" y1="0" x2="60" y2="600" stroke="#f59e0b" stroke-width="0.5" opacity="0.08"/><line x1="120" y1="0" x2="120" y2="600" stroke="#f59e0b" stroke-width="0.5" opacity="0.08"/><line x1="180" y1="0" x2="180" y2="600" stroke="#f59e0b" stroke-width="0.5" opacity="0.08"/><line x1="240" y1="0" x2="240" y2="600" stroke="#f59e0b" stroke-width="0.5" opacity="0.08"/><line x1="300" y1="0" x2="300" y2="600" stroke="#f59e0b" stroke-width="0.5" opacity="0.08"/><line x1="360" y1="0" x2="360" y2="600" stroke="#f59e0b" stroke-width="0.5" opacity="0.08"/><line x1="420" y1="0" x2="420" y2="600" stroke="#f59e0b" stroke-width="0.5" opacity="0.08"/><line x1="480" y1="0" x2="480" y2="600" stroke="#f59e0b" stroke-width="0.5" opacity="0.08"/><line x1="540" y1="0" x2="540" y2="600" stroke="#f59e0b" stroke-width="0.5" opacity="0.08"/><line x1="600" y1="0" x2="600" y2="600" stroke="#f59e0b" stroke-width="0.5" opacity="0.08"/><line x1="660" y1="0" x2="660" y2="600" stroke="#f59e0b" stroke-width="0.5" opacity="0.08"/><line x1="720" y1="0" x2="720" y2="600" stroke="#f59e0b" stroke-width="0.5" opacity="0.08"/><line x1="780" y1="0" x2="780" y2="600" stroke="#f59e0b" stroke-width="0.5" opacity="0.08"/><line x1="0" y1="0" x2="800" y2="0" stroke="#f59e0b" stroke-width="0.5" opacity="0.08"/><line x1="0" y1="60" x2="800" y2="60" stroke="#f59e0b" stroke-width="0.5" opacity="0.08"/><line x1="0" y1="120" x2="800" y2="120" stroke="#f59e0b" stroke-width="0.5" opacity="0.08"/><line x1="0" y1="180" x2="800" y2="180" stroke="#f59e0b" stroke-width="0.5" opacity="0.08"/><line x1="0" y1="240" x2="800" y2="240" stroke="#f59e0b" stroke-width="0.5" opacity="0.08"/><line x1="0" y1="300" x2="800" y2="300" stroke="#f59e0b" stroke-width="0.5" opacity="0.08"/><line x1="0" y1="360" x2="800" y2="360" stroke="#f59e0b" stroke-width="0.5" opacity="0.08"/><line x1="0" y1="420" x2="800" y2="420" stroke="#f59e0b" stroke-width="0.5" opacity="0.08"/><line x1="0" y1="480" x2="800" y2="480" stroke="#f59e0b" stroke-width="0.5" opacity="0.08"/><line x1="0" y1="540" x2="800" y2="540" stroke="#f59e0b" stroke-width="0.5" opacity="0.08"/><circle cx="205" cy="390" r="1.3662334998892776" fill="#eab308" opacity="0.35725821698310817"/><circle cx="582" cy="558" r="2.4501476931875397" fill="#e879a0" opacity="0.43320481572107866"/><circle cx="398" cy="39" r="1.2990749222260303" fill="#f97316" opacity="0.6953401492675204"/><circle cx="495" cy="572" r="1.4720713982521338" fill="#eab308" opacity="0.5664036984081651"/><circle cx="368" cy="56" r="2.0423071092532625" fill="#e879a0" opacity="0.3172149721745741"/><circle cx="531" cy="321" r="1.710971353371406" fill="#f59e0b" opacity="0.49090392069908095"/><circle cx="558" cy="4" r="2.57261158777645" fill="#eab308" opacity="0.7776147190141163"/><circle cx="391" cy="321" r="2.861466947241863" fill="#e879a0" opacity="0.4032681203257971"/><circle cx="589" cy="15" r="2.1198708750258164" fill="#f97316" opacity="0.30036966416098115"/><circle cx="169" cy="122" r="1.0164041914140902" fill="#f59e0b" opacity="0.4145778742415153"/><circle cx="96" cy="108" r="2.3400250683433756" fill="#e879a0" opacity="0.3995697004945319"/><circle cx="162" cy="235" r="2.7764982953349038" fill="#f59e0b" opacity="0.30816418110228117"/><circle cx="721" cy="80" r="1.2326591237499065" fill="#eab308" opacity="0.3403983149770397"/><circle cx="503" cy="11" r="1.990752454227614" fill="#f97316" opacity="0.4401701945523158"/><circle cx="437" cy="39" r="1.303139167773529" fill="#e879a0" opacity="0.534042599755743"/><circle cx="325" cy="297" r="2.0029435690402684" fill="#eab308" opacity="0.49037714078615985"/><circle cx="660" cy="512" r="2.001670360205434" fill="#f59e0b" opacity="0.48520884768688466"/><circle cx="564" cy="69" r="1.0035563781334869" fill="#e879a0" opacity="0.6152862124955683"/><circle cx="508" cy="380" r="2.6424629399202026" fill="#e879a0" opacity="0.558455284474425"/><circle cx="79" cy="203" r="2.698493730838556" fill="#eab308" opacity="0.7167161350089091"/>
</svg>