<svg xmlns="http://www.w3.org/2000/svg" viewBox="0 0 800 600" width="800" height="600">
  <defs>
    <linearGradient id="bg" x1="0%" y1="0%" x2="100%" y2="100%">
      <stop offset="0%" style="stop-color:#0a0806"/>
      <stop offset="100%" style="stop-color:#150f06"/>
    </linearGradient>
    <filter id="blur"><feGaussianBlur stdDeviation="40"/></filter>
    <filter id="blur2"><feGaussianBlur stdDeviation="20"/></filter>
  </defs>
  <rect width="800" height="600" fill="url(#bg)"/><circle cx="169" cy="29" r="128" fill="#f97316" opacity="0.3478238683095929" filter="url(#blur)"/><circle cx="119" cy="61" r="117" fill="#e879a0" opacity="0.293094456551351" filter="url(#blur)"/><circle cx="444" cy="133" r="148" fill="#e879a0" opacity="0.21613767170592826" filter="url(#blur)"/><circle cx="796" cy="466" r="99" fill="#eab308" opacity="0.15323945051829205" filter="url(#blur)"/><rect x="407" y="371" width="109" height="110" fill="none" stroke="#eab308" stroke-width="1" opacity="0.4304835383022717" transform="rotate(134,461,426)"/><circle cx="471" cy="375" r="55" fill="#e879a0" opacity="0.1821791780004718"/><rect x="393" y="171" width="85" height="68" fill="none" stroke="#e879a0" stroke-width="1" opacity="0.15179338886663604" transform="rotate(334,435,205)"/><polygon points="347.0,292.0 379.3,315.5 367.0,353.5 327.0,353.5 314.7,315.5" fill="none" stroke="#e879a0" stroke-width="1.5" opacity="0.31790285411905145"/><circle cx="211" cy="562" r="51" fill="none" stroke="#eab308" stroke-width="1" opacity="0.4780436868836808"/><line x1="490" y1="538" x2="610" y2="410" stroke="#f97316" stroke-width="1" opacity="0.3449857792131611"/><circle cx="695" cy="109" r="27" fill="none" stroke="#eab308" stroke-width="1" opacity="0.13033858994113864"/><polygon points="179.0,418.0 214.0,453.0 179.0,488.0 144.0,453.0" fill="none" stroke="#f97316" stroke-width="1.5" opacity="0.12898106822033265"/><circle cx="514" cy="533" r="27" fill="#f59e0b" opacity="0.1481669800022164"/><circle cx="606" cy="273" r="44" fill="#f97316" opacity="0.13258740974137234"/><polygon points="674.0,336.0 705.2,390.0 642.8,390.0" fill="none" stroke="#e879a0" stroke-width="1.5" opacity="0.443830020173704"/><rect x="16" y="474" width="53" height="100" fill="none" stroke="#f97316" stroke-width="1" opacity="0.23776189783262006" transform="rotate(327,42,524)"/><rect x="779" y="34" width="118" height="76" fill="none" stroke="#e879a0" stroke-width="1" opacity="0.28485001579475916" transform="rotate(304,838,72)"/><circle cx="119" cy="336" r="30" fill="#f97316" opacity="0.0757856874651623"/><circle cx="232" cy="599" r="35" fill="none" stroke="#f59e0b" stroke-width="1" opacity="0.2377757544440151"/><polygon points="611.0,332.0 639.5,352.7 628.6,386.3 593.4,386.3 582.5,352.7" fill="none" stroke="#f59e0b" stroke-width="1.5" opacity="0.2906808292503492"/><polygon points="648.0,116.0 724.0,192.0 648.0,268.0 572.0,192.0" fill="none" stroke="#eab308" stroke-width="1.5" opacity="0.2695848234775582"/><polygon points="363.0,182.0 416.3,220.7 395.9,283.3 330.1,283.3 309.7,220.7" fill="none" stroke="#f97316" stroke-width="1.5" opacity="0.41517005240638283"/><line x1="0" y1="0" x2="0" y2="600" stroke="#f59e0b" stroke-width="0.5" opacity="0.08"/><line x1="60" y1="0" x2="60" y2="600" stroke="#f59e0b" stroke-width="0.5" opacity="0.08"/><line x1="120" y1="0" x2="120" y2="600" stroke="#f59e0b" stroke-width="0.5" opacity="0.08"/><line x1="180" y1="0" x2="180" y2="600" stroke="#f59e0b" stroke-width="0.5" opacity="0.08"/><line x1="240" y1="0" x2="240" y2="600" stroke="#f59e0b" stroke-width="0.5" opacity="0.08"/><line x1="300" y1="0" x2="300" y2="600" stroke="#f59e0b" stroke-width="0.5" opacity="0.08"/><line x1="360" y1="0" x2="360" y2="600" stroke="#f59e0b" stroke-width="0.5" opacity="0.08"/><line x1="420" y1="0" x2="420" y2="600" stroke="#f59e0b" stroke-width="0.5" opacity="0.08"/><line x1="480" y1="0" x2="480" y2="600" stroke="#f59e0b" stroke-width="0.5" opacity="0.08"/><line x1="540" y1="0" x2="540" y2="600" stroke="#f59e0b" stroke-width="0.5" opacity="0.08"/><line x1="600" y1="0" x2="600" y2="600" stroke="#f59e0b" stroke-width="0.5" opacity="0.08"/><line x1="660" y1="0" x2="660" y2="600" stroke="#f59e0b" stroke-width="0.5" opacity="0.08"/><line x1="720" y1="0" x2="720" y2="600" stroke="#f59e0b" stroke-width="0.5" opacity="0.08"/><line x1="780" y1="0" x2="780" y2="600" stroke="#f59e0b" stroke-width="0.5" opacity="0.08"/><line x1="0" y1="0" x2="800" y2="0" stroke="#f59e0b" stroke-width="0.5" opacity="0.08"/><line x1="0" y1="60" x2="800" y2="60" stroke="#f59e0b" stroke-width="0.5" opacity="0.08"/><line x1="0" y1="120" x2="800" y2="120" stroke="#f59e0b" stroke-width="0.5" opacity="0.08"/><line x1="0" y1="180" x2="800" y2="180" stroke="#f59e0b" stroke-width="0.5" opacity="0.08"/><line x1="0" y1="240" x2="800" y2="240" stroke="#f59e0b" stroke-width="0.5" opacity="0.08"/><line x1="0" y1="300" x2="800" y2="300" stroke="#f59e0b" stroke-width="0.5" opacity="0.08"/><line x1="0" y1="360" x2="800" y2="360" stroke="#f59e0b" stroke-width="0.5" opacity="0.08"/><line x1="0" y1="420" x2="800" y2="420" stroke="#f59e0b" stroke-width="0.5" opacity="0.08"/><line x1="0" y1="480" x2="800" y2="480" stroke="#f59e0b" stroke-width="0.5" opacity="0.08"/><line x1="0" y1="540" x2="800" y2="540" stroke="#f59e0b" stroke-width="0.5" opacity="0.08"/><circle cx="471" cy="104" r="1.7603454107404466" fill="#e879a0" opacity="0.3912883002045027"/><circle cx="407" cy="249" r="1.4854889067442492" fill="#f97316" opacity="0.37493829331051676"/><circle cx="138" cy="564" r="1.9985794122935663" fill="#f59e0b" opacity="0.48544512013980373"/><circle cx="89" cy="319" r="2.091624607877157" fill="#f97316" opacity="0.42274125307843075"/><circle cx="765" cy="55" r="2.583339585154662" fill="#eab308" opacity="0.7099809108360629"/><circle cx="676" cy="353" r="1.2315248177605629" fill="#f59e0b" opacity="0.5086822277739673"/><circle cx="278" cy="108" r="2.078420653560185" fill="#f59e0b" opacity="0.37772708235584807"/><circle cx="141" cy="336" r="2.2314813398787168" fill="#f97316" opacity="0.64721875515331"/><circle cx="634" cy="299" r="2.8840432955785196" fill="#f97316" opacity="0.7918176349163488"/><circle cx="493" cy="551" r="1.5126019918920701" fill="#eab308" opacity="0.30536997770937185"/><circle cx="739" cy="277" r="1.6357219136567687" fill="#f59e0b" opacity="0.5495192184493936"/><circle cx="100" cy="498" r="1.4388042567481087" fill="#f59e0b" opacity="0.6878394703509105"/><circle cx="381" cy="245" r="1.541906983579747" fill="#e879a0" opacity="0.4898015393856374"/><circle cx="435" cy="284" r="1.4018960100125823" fill="#eab308" opacity="0.3445328311039537"/><circle cx="778" cy="401" r="2.6459607790897257" fill="#eab308" opacity="0.3453974260354708"/><circle cx="183" cy="163" r="2.218348633956489" fill="#eab308" opacity="0.4042228463649916"/><circle cx="94" cy="412" r="2.6524271739803407" fill="#f97316" opacity="0.7077508035351053"/><circle cx="189" cy="545" r="1.560017068521941" fill="#f97316" opacity="0.3301768037557293"/><circle cx="114" cy="224" r="1.554810375982434" fill="#f59e0b" opacity="0.52562794154142"/><circle cx="555" cy="549" r="1.4493778348299917" fill="#eab308" opacity="0.6326114927893802"/>
</svg>