<svg xmlns="http://www.w3.org/2000/svg" viewBox="0 0 800 600" width="800" height="600">
  <defs>
    <linearGradient id="bg" x1="0%" y1="0%" x2="100%" y2="100%">
      <stop offset="0%" style="stop-color:#0a0806"/>
      <stop offset="100%" style="stop-color:#150f06"/>
    </linearGradient>
    <filter id="blur"><feGaussianBlur stdDeviation="40"/></filter>
    <filter id="blur2"><feGaussianBlur stdDeviation="20"/></filter>
  </defs>
  <rect width="800" height="600" fill="url(#bg)"/><circle cx="531" cy="172" r="125" fill="#e879a0" opacity="0.15437598985638884" filter="url(#blur)"/><circle cx="140" cy="389" r="91" fill="#e879a0" opacity="0.15194302872888332" filter="url(#blur)"/><circle cx="106" cy="192" r="131" fill="#f59e0b" opacity="0.20413180365149272" filter="url(#blur)"/><circle cx="668" cy="18" r="147" fill="#f59e0b" opacity="0.174175220771715" filter="url(#blur)"/><line x1="368" y1="19" x2="543" y2="-24" stroke="#f59e0b" stroke-width="1" opacity="0.18387210618013633"/><line x1="703" y1="265" x2="658" y2="165" stroke="#f97316" stroke-width="1" opacity="0.17108296238769322"/><line x1="307" y1="22" x2="242" y2="153" stroke="#e879a0" stroke-width="1" opacity="0.35245471705628517"/><polygon points="559.0,310.0 601.4,383.5 516.6,383.5" fill="none" stroke="#f97316" stroke-width="1.5" opacity="0.32368198314923036"/><rect x="413" y="116" width="34" height="57" fill="none" stroke="#eab308" stroke-width="1" opacity="0.4533224269204502" transform="rotate(196,430,144)"/><polygon points="469.0,401.0 537.4,440.5 537.4,519.5 469.0,559.0 400.6,519.5 400.6,440.5" fill="none" stroke="#f97316" stroke-width="1.5" opacity="0.4399062399387861"/><polygon points="560.0,169.0 588.6,185.5 588.6,218.5 560.0,235.0 531.4,218.5 531.4,185.5" fill="none" stroke="#eab308" stroke-width="1.5" opacity="0.17132502227730928"/><line x1="295" y1="493" x2="263" y2="442" stroke="#f59e0b" stroke-width="1" opacity="0.29182206054427295"/><rect x="393" y="22" width="96" height="90" fill="none" stroke="#e879a0" stroke-width="1" opacity="0.41034608429884467" transform="rotate(46,441,67)"/><rect x="412" y="56" width="87" height="63" fill="none" stroke="#eab308" stroke-width="1" opacity="0.363196857077667" transform="rotate(326,455,87)"/><line x1="135" y1="600" x2="59" y2="650" stroke="#f59e0b" stroke-width="1" opacity="0.3508319578055187"/><rect x="786" y="304" width="47" height="88" fill="none" stroke="#f97316" stroke-width="1" opacity="0.28399808585571634" transform="rotate(318,809,348)"/><rect x="30" y="513" width="48" height="48" fill="none" stroke="#f59e0b" stroke-width="1" opacity="0.210738159927414" transform="rotate(115,54,537)"/><line x1="428" y1="349" x2="434" y2="208" stroke="#eab308" stroke-width="1" opacity="0.3532107338690219"/><rect x="268" y="528" width="107" height="61" fill="none" stroke="#e879a0" stroke-width="1" opacity="0.3325011260328775" transform="rotate(356,321,558)"/><circle cx="530" cy="82" r="24" fill="#f59e0b" opacity="0.05330206620466587"/><circle cx="228" cy="25" r="25" fill="#f59e0b" opacity="0.11149645929885169"/><circle cx="468" cy="433" r="25" fill="none" stroke="#f59e0b" stroke-width="1" opacity="0.10206184174031803"/><line x1="0" y1="0" x2="0" y2="600" stroke="#f59e0b" stroke-width="0.5" opacity="0.08"/><line x1="60" y1="0" x2="60" y2="600" stroke="#f59e0b" stroke-width="0.5" opacity="0.08"/><line x1="120" y1="0" x2="120" y2="600" stroke="#f59e0b" stroke-width="0.5" opacity="0.08"/><line x1="180" y1="0" x2="180" y2="600" stroke="#f59e0b" stroke-width="0.5" opacity="0.08"/><line x1="240" y1="0" x2="240" y2="600" stroke="#f59e0b" stroke-width="0.5" opacity="0.08"/><line x1="300" y1="0" x2="300" y2="600" stroke="#f59e0b" stroke-width="0.5" opacity="0.08"/><line x1="360" y1="0" x2="360" y2="600" stroke="#f59e0b" stroke-width="0.5" opacity="0.08"/><line x1="420" y1="0" x2="420" y2="600" stroke="#f59e0b" stroke-width="0.5" opacity="0.08"/><line x1="480" y1="0" x2="480" y2="600" stroke="#f59e0b" stroke-width="0.5" opacity="0.08"/><line x1="540" y1="0" x2="540" y2="600" stroke="#f59e0b" stroke-width="0.5" opacity="0.08"/><line x1="600" y1="0" x2="600" y2="600" stroke="#f59e0b" stroke-width="0.5" opacity="0.08"/><line x1="660" y1="0" x2="660" y2="600" stroke="#f59e0b" stroke-width="0.5" opacity="0.08"/><line x1="720" y1="0" x2="720" y2="600" stroke="#f59e0b" stroke-width="0.5" opacity="0.08"/><line x1="780" y1="0" x2="780" y2="600" stroke="#f59e0b" stroke-width="0.5" opacity="0.08"/><line x1="0" y1="0" x2="800" y2="0" stroke="#f59e0b" stroke-width="0.5" opacity="0.08"/><line x1="0" y1="60" x2="800" y2="60" stroke="#f59e0b" stroke-width="0.5" opacity="0.08"/><line x1="0" y1="120" x2="800" y2="120" stroke="#f59e0b" stroke-width="0.5" opacity="0.08"/><line x1="0" y1="180" x2="800" y2="180" stroke="#f59e0b" stroke-width="0.5" opacity="0.08"/><line x1="0" y1="240" x2="800" y2="240" stroke="#f59e0b" stroke-width="0.5" opacity="0.08"/><line x1="0" y1="300" x2="800" y2="300" stroke="#f59e0b" stroke-width="0.5" opacity="0.08"/><line x1="0" y1="360" x2="800" y2="360" stroke="#f59e0b" stroke-width="0.5" opacity="0.08"/><line x1="0" y1="420" x2="800" y2="420" stroke="#f59e0b" stroke-width="0.5" opacity="0.08"/><line x1="0" y1="480" x2="800" y2="480" stroke="#f59e0b" stroke-width="0.5" opacity="0.08"/><line x1="0" y1="540" x2="800" y2="540" stroke="#f59e0b" stroke-width="0.5" opacity="0.08"/><circle cx="205" cy="420" r="1.374999484367737" fill="#f59e0b" opacity="0.5417098937456101"/><circle cx="616" cy="581" r="1.5274837998018038" fill="#f59e0b" opacity="0.7209686786052818"/><circle cx="439" cy="494" r="1.9944062744636848" fill="#f97316" opacity="0.46939738929233393"/><circle cx="135" cy="58" r="2.483354615495524" fill="#eab308" opacity="0.6218387938852816"/><circle cx="61" cy="50" r="2.944509210842138" fill="#f97316" opacity="0.5943564042397211"/><circle cx="429" cy="220" r="2.875010930035775" fill="#e879a0" opacity="0.7113136896091636"/><circle cx="571" cy="429" r="1.292019865076264" fill="#f59e0b" opacity="0.6559217613076294"/><circle cx="507" cy="219" r="1.4816969181397142" fill="#eab308" opacity="0.5479089835469233"/><circle cx="541" cy="240" r="1.0640014085299054" fill="#eab308" opacity="0.4264532884179668"/><circle cx="444" cy="519" r="1.6740798123814347" fill="#e879a0" opacity="0.5080861301233723"/><circle cx="154" cy="236" r="2.1837164762116164" fill="#e879a0" opacity="0.36022220026633106"/><circle cx="406" cy="57" r="2.12195238430399" fill="#eab308" opacity="0.5717265675811584"/><circle cx="294" cy="97" r="1.1560605721025352" fill="#f97316" opacity="0.6345011309569524"/><circle cx="340" cy="367" r="2.19267397803546" fill="#f97316" opacity="0.5306996392352471"/><circle cx="42" cy="141" r="1.6634903904707599" fill="#e879a0" opacity="0.7105275939799449"/><circle cx="354" cy="111" r="1.951420045565039" fill="#f59e0b" opacity="0.34724290905947014"/><circle cx="59" cy="21" r="2.8332636963959112" fill="#e879a0" opacity="0.4801055401223889"/><circle cx="647" cy="382" r="2.048681938298187" fill="#f59e0b" opacity="0.38866985835792184"/><circle cx="283" cy="413" r="1.2795937163329687" fill="#eab308" opacity="0.5224410756734821"/><circle cx="163" cy="132" r="1.5470865923471795" fill="#f59e0b" opacity="0.793029475728653"/>
</svg>